<?xml version="1.0" encoding="UTF-8" standalone="no"?>
<!-- Created with Inkscape (http://www.inkscape.org/) -->

<svg
   width="48.854713mm"
   height="100.16624mm"
   version="1.1"
   viewBox="0 0 48.854714 100.16624"
   id="svg1188"
   sodipodi:docname="bulbNSpeak.svg"
   inkscape:version="1.1.2 (b8e25be8, 2022-02-05)"
   xmlns:inkscape="http://www.inkscape.org/namespaces/inkscape"
   xmlns:sodipodi="http://sodipodi.sourceforge.net/DTD/sodipodi-0.dtd"
   xmlns="http://www.w3.org/2000/svg"
   xmlns:svg="http://www.w3.org/2000/svg">
  <defs
     id="defs1192" />
  <sodipodi:namedview
     id="namedview1190"
     pagecolor="#505050"
     bordercolor="#eeeeee"
     borderopacity="1"
     inkscape:pageshadow="0"
     inkscape:pageopacity="0"
     inkscape:pagecheckerboard="0"
     inkscape:document-units="mm"
     showgrid="false"
     inkscape:zoom="1.7969738"
     inkscape:cx="86.534374"
     inkscape:cy="180.58138"
     inkscape:window-width="1296"
     inkscape:window-height="969"
     inkscape:window-x="0"
     inkscape:window-y="25"
     inkscape:window-maximized="0"
     inkscape:current-layer="svg1188"
     fit-margin-top="0"
     fit-margin-left="0"
     fit-margin-right="0"
     fit-margin-bottom="0" />
  <g
     transform="translate(-3.2630841,43.827524)"
     id="g1186"
     style="fill:#ffffff;fill-opacity:1">
    <path
       d="m 25.662,56.247 c -0.21185,-0.0589 -0.52617,-0.19422 -0.69848,-0.30072 -0.40319,-0.24918 -0.92846,-0.8897 -0.89064,-1.0861 0.02768,-0.14374 0.24356,-0.15211 3.9228,-0.15211 3.866,0 3.8937,0.0012 3.9184,0.1743 0.03815,0.26674 -0.5924,0.92307 -1.1498,1.1968 l -0.48382,0.23759 -2.1167,0.01866 c -1.4989,0.01321 -2.2291,-0.0126 -2.5019,-0.08843 z m -2.6044,-2.5982 c -0.31816,-0.1953 -0.56091,-0.68735 -0.48612,-0.98534 0.02765,-0.11016 0.16065,-0.32383 0.29555,-0.47481 l 0.24528,-0.27451 h 9.7473 l 0.2768,0.2768 c 0.2299,0.2299 0.2768,0.3408 0.2768,0.65454 0,0.31372 -0.04691,0.42466 -0.27675,0.65454 l -0.27675,0.2768 -4.7609,0.02202 c -4.6574,0.02154 -4.767,0.01828 -5.0412,-0.15002 z m -0.48174,-2.7891 c -0.35588,-0.1472 -0.59267,-0.50601 -0.59267,-0.89808 0,-0.30786 0.04806,-0.42062 0.27676,-0.64935 l 0.27676,-0.27679 5.3369,-0.02302 c 5.8631,-0.02529 5.724,-0.03641 6.0302,0.48196 0.18364,0.31087 0.18364,0.63393 0,0.9448 -0.30245,0.51201 -0.18031,0.50178 -5.922,0.4959 -2.8801,-0.003 -5.3127,-0.03689 -5.4059,-0.07541 z m 0,-2.7468 c -0.1397,-0.06246 -0.35509,-0.20858 -0.47864,-0.32472 -0.42521,-0.39967 -0.51217,-0.69306 -0.58265,-1.9657 -0.12305,-2.2218 -0.68555,-3.9209 -1.9122,-5.7763 -0.25251,-0.38192 -1.0214,-1.2814 -1.716,-2.0075 -0.77364,-0.8087 -1.4867,-1.6512 -1.8508,-2.1867 -5.2966,-7.79 -2.0458,-18.322 6.7189,-21.768 0.81448,-0.32022 2.0248,-0.64673 3.0811,-0.83122 0.96628,-0.16876 3.5722,-0.14269 4.6143,0.04616 5.9973,1.0868 10.513,5.5053 11.823,11.568 0.16415,0.75999 0.19181,1.1435 0.19516,2.7058 0.0034,1.5716 -0.02259,1.9515 -0.18997,2.7799 -0.3969,1.9645 -1.1201,3.7233 -2.1885,5.3221 -0.61962,0.92728 -1.058,1.4445 -2.3036,2.7175 -1.2893,1.3178 -2.1989,2.7629 -2.7223,4.3251 -0.37052,1.1059 -0.51215,1.871 -0.58376,3.1533 -0.07477,1.3389 -0.19436,1.6623 -0.76358,2.0644 l -0.35953,0.254 -5.2633,0.01885 c -4.2506,0.01522 -5.3121,-0.003 -5.5173,-0.09472 z m 10.033,-2.3711 c 0,-1.4448 0.55916,-3.6376 1.3088,-5.1328 0.74739,-1.4906 1.3427,-2.3006 2.799,-3.808 1.429,-1.4792 1.9207,-2.1439 2.6187,-3.5401 0.47678,-0.95372 0.8466,-2.0142 1.0777,-3.0903 0.2519,-1.173 0.27386,-3.6958 0.04212,-4.8389 -0.52396,-2.5846 -1.7095,-4.8152 -3.5311,-6.6436 -1.0246,-1.0284 -2.0341,-1.7429 -3.4262,-2.4249 -4.1919,-2.0537 -9.0487,-1.6321 -12.89,1.1189 -0.97552,0.69864 -2.452,2.2155 -3.0796,3.1639 -1.4924,2.2552 -2.152,4.441 -2.146,7.1109 0.0036,1.583 0.1896,2.7525 0.64319,4.0439 0.73021,2.079 1.5229,3.3126 3.3315,5.1847 0.56234,0.58208 1.2006,1.2914 1.4184,1.5763 1.3754,1.799 2.3196,4.1488 2.5306,6.2977 0.048,0.48895 0.1057,1.0509 0.1282,1.2488 l 0.04092,0.35983 h 9.1336 z m -13.547,-18.568 c -0.23532,-0.08563 -0.58406,-0.4705 -0.63453,-0.70026 -0.11378,-0.51802 0.41117,-2.3503 1.0278,-3.5873 1.3667,-2.7418 3.6179,-4.479 6.6341,-5.1191 1.2516,-0.26561 1.9597,-0.31219 2.2742,-0.14958 0.54104,0.27978 0.67836,0.96902 0.28154,1.4131 -0.22412,0.25083 -0.30156,0.27577 -1.3022,0.41928 -1.9471,0.27927 -3.4089,0.92638 -4.5915,2.0326 -1.0691,1.0001 -1.9413,2.5599 -2.3107,4.1323 -0.27552,1.1729 -0.3092,1.2496 -0.63613,1.449 -0.27371,0.16688 -0.49565,0.19972 -0.74256,0.10987 z m -9.5025,17.254 C 9.31585,44.21022 9.28286,44.12943 9.28286,43.75066 v -0.43009 l 4.6994,-4.6994 h 0.42122 c 0.55668,0 0.84702,0.26883 0.91188,0.84434 l 0.04493,0.3986 -2.4054,2.4054 c -2.3898,2.3898 -2.4077,2.4054 -2.7622,2.4054 -0.27464,0 -0.42053,-0.05691 -0.63334,-0.24706 z m 35.453,0.08728 c -0.1397,-0.08753 -1.2351,-1.1477 -2.4342,-2.356 -2.2325,-2.2496 -2.2451,-2.2659 -2.1868,-2.8182 0.04262,-0.4038 0.47377,-0.762 0.91718,-0.762 0.37687,0 0.72257,0.29914 3.0053,2.6005 2.0876,2.1046 2.1495,2.1837 2.1087,2.6911 -0.05342,0.6643 -0.81971,1.0145 -1.4102,0.64456 z m -0.17881,-16.433 c -0.3046,-0.12307 -0.54086,-0.50234 -0.54086,-0.86824 0,-0.2689 0.05729,-0.393 0.28787,-0.62358 l 0.28787,-0.28787 3.2893,3.39e-4 c 3.1085,3.38e-4 3.3041,0.0094 3.5593,0.16493 0.55757,0.33997 0.52821,1.1551 -0.05598,1.5544 -0.18784,0.12837 -0.53997,0.1425 -3.429,0.13769 -1.7708,-0.003 -3.3001,-0.03788 -3.3985,-0.07761 z m -40.461,-0.9284 C 4.14676,27.06126 3.93931,26.82202 3.82557,26.52287 3.70445,26.20431 3.840594,25.77415 4.1361,25.54171 c 0.20907,-0.16446 0.33664,-0.17066 3.5117,-0.17066 3.5737,0 3.656,0.0099 3.8626,0.4633 0.14017,0.30763 0.1264,0.73297 -0.03099,0.95768 -0.30288,0.43243 -0.38657,0.44209 -3.7795,0.43632 -1.7369,-0.003 -3.2342,-0.03655 -3.3274,-0.07467 z m 12.615,-12.294 c -0.26394,-0.14344 -4.4413,-4.3198 -4.5776,-4.5765 -0.41483,-0.78131 0.34028,-1.6725 1.1374,-1.3424 0.36765,0.15228 4.717,4.5683 4.7869,4.8604 0.08077,0.33722 -0.08704,0.78266 -0.37103,0.98488 -0.26086,0.18575 -0.70731,0.21942 -0.97567,0.07359 z m 20.142,-0.1907 c -0.23827,-0.23827 -0.28787,-0.3507 -0.28787,-0.65256 0,-0.36403 0.0041,-0.3688 2.2648,-2.6393 1.2457,-1.251 2.3677,-2.329 2.4935,-2.3954 0.12575,-0.066448 0.31625,-0.12067 0.42333,-0.1205 0.29608,4.826e-4 0.70333,0.28726 0.82497,0.58093 0.23499,0.56732 0.1702,0.65471 -2.3486,3.1676 -2.3515,2.346 -2.3529,2.3472 -2.7175,2.3472 -0.302,0 -0.41438,-0.04957 -0.65268,-0.28787 z m -9.5589,-2.6891 c -0.47222,-0.25969 -0.46174,-0.17369 -0.46378,-3.8061 -0.0018,-3.2361 0.0041,-3.3617 0.16878,-3.571 0.2506,-0.31859 0.67474,-0.4371 1.0286,-0.2874 0.15533,0.065716 0.35863,0.20489 0.45176,0.30928 0.1618,0.18136 0.17052,0.32965 0.19595,3.3349 0.01817,2.1461 -0.0035,3.2472 -0.06811,3.4666 -0.15529,0.5271 -0.83813,0.81509 -1.3132,0.55385 z"
       stroke-width="0.084667"
       id="path1184"
       style="fill:#ffffff;fill-opacity:1;stroke-width:0.085;stroke-miterlimit:4;stroke-dasharray:none" />
  </g>
  <g
     id="g1880"
     transform="matrix(0.21054471,0,0,0.21054471,-3.7898048,-5.4742944)">
    <path
       d="m 218.9,77.1 a 71.9,71.9 0 0 1 0,101.8"
       fill="none"
       stroke="#000"
       stroke-linecap="round"
       stroke-linejoin="round"
       stroke-width="12"
       id="path1152"
       style="stroke:#ffffff;stroke-opacity:1" />
    <path
       d="M 80,168 H 32 a 8,8 0 0 1 -8,-8 V 96 a 8,8 0 0 1 8,-8 h 48 l 72,-56 v 192 z"
       fill="none"
       stroke="#000"
       stroke-linecap="round"
       stroke-linejoin="round"
       stroke-width="12"
       id="path1154"
       style="stroke:#ffffff;stroke-opacity:1" />
    <line
       fill="none"
       stroke="#000"
       stroke-linecap="round"
       stroke-linejoin="round"
       stroke-width="12"
       x1="80"
       x2="80"
       y1="88"
       y2="168"
       id="line1156"
       style="stroke:#ffffff;stroke-opacity:1" />
    <path
       d="m 190.6,105.4 a 31.9,31.9 0 0 1 0,45.2"
       fill="none"
       stroke="#000"
       stroke-linecap="round"
       stroke-linejoin="round"
       stroke-width="12"
       id="path1158"
       style="stroke:#ffffff;stroke-opacity:1" />
  </g>
</svg>
