<?xml version="1.0" encoding="UTF-8" standalone="no"?>
<!-- Created with Inkscape (http://www.inkscape.org/) -->

<svg
   width="68.748962mm"
   height="132.56978mm"
   version="1.1"
   viewBox="0 0 68.748962 132.56978"
   id="svg2140"
   sodipodi:docname="relayH.svg"
   inkscape:version="1.1.2 (b8e25be8, 2022-02-05)"
   xmlns:inkscape="http://www.inkscape.org/namespaces/inkscape"
   xmlns:sodipodi="http://sodipodi.sourceforge.net/DTD/sodipodi-0.dtd"
   xmlns="http://www.w3.org/2000/svg"
   xmlns:svg="http://www.w3.org/2000/svg">
  <defs
     id="defs2144" />
  <sodipodi:namedview
     id="namedview2142"
     pagecolor="#505050"
     bordercolor="#eeeeee"
     borderopacity="1"
     inkscape:pageshadow="0"
     inkscape:pageopacity="0"
     inkscape:pagecheckerboard="0"
     inkscape:document-units="mm"
     showgrid="false"
     inkscape:zoom="1.4042623"
     inkscape:cx="-97.204062"
     inkscape:cy="258.85477"
     inkscape:window-width="1296"
     inkscape:window-height="969"
     inkscape:window-x="0"
     inkscape:window-y="25"
     inkscape:window-maximized="0"
     inkscape:current-layer="svg2140"
     fit-margin-top="0"
     fit-margin-left="0"
     fit-margin-right="0"
     fit-margin-bottom="0" />
  <g
     transform="rotate(90,30.517006,100.52019)"
     id="g2138">
    <path
       d="m -39.686,130.49 c -11.417,-2.3959 -19.388,-10.069 -22.366,-21.53 -0.54836,-2.1105 -0.84803,-3.8794 -1.3561,-8.005 l -0.13849,-1.1245 h -2.3824 c -2.7338,0 -3.3037,-0.21976 -3.8288,-1.4765 -0.32611,-0.78048 -0.32674,-1.0275 -0.0046,-1.7985 0.20539,-0.49156 0.53441,-0.99758 0.73116,-1.1245 0.19675,-0.12691 1.4866,-0.29027 2.8663,-0.36303 l 2.5086,-0.13229 0.30181,-3.0597 c 0.77441,-7.851 2.7932,-13.597 6.5124,-18.536 4.3579,-5.7872 10.95,-9.5895 18.728,-10.803 1.4598,-0.22772 10.902,-0.2875 35.719,-0.22615 l 33.734,0.0834 2.5488,0.70339 c 5.2872,1.4591 9.0504,3.5263 12.575,6.908 5.4985,5.2751 8.4746,12.142 9.4006,21.689 l 0.32718,3.3734 h 2.342 c 2.6928,0 3.2645,0.22283 3.7884,1.4765 0.32765,0.78417 0.32765,1.0253 0,1.8095 -0.5251,1.2568 -1.095,1.4765 -3.8288,1.4765 h -2.3824 l -0.13849,1.1245 c -0.76398,6.203 -1.435,9.1105 -2.9095,12.607 -3.8268,9.0737 -11.071,14.924 -20.978,16.943 -2.6278,0.53552 -3.3363,0.54591 -35.977,0.5275 -32.135,-0.0181 -33.383,-0.0371 -35.794,-0.54302 z m 72.366,-5.1248 c 7.9427,-2.0148 13.779,-7.548 16.55,-15.691 0.76027,-2.2339 1.8202,-7.5188 1.8202,-9.0757 v -0.76746 h -24.545 l -0.46156,0.7276 c -1.7776,2.8022 -4.7531,4.0576 -7.6769,3.239 -1.5587,-0.43642 -3.6254,-2.2802 -4.2215,-3.7661 -1.0213,-2.5459 -0.34725,-5.5897 1.6327,-7.373 3.2652,-2.9409 7.8048,-2.1969 10.266,1.6824 l 0.46156,0.7276 h 24.545 v -1.6935 c 0,-3.6858 -1.5588,-10.191 -3.2395,-13.52 -3.0276,-5.9963 -8.3964,-10.2 -15.246,-11.937 l -2.4844,-0.63021 h -67.598 l -2.4844,0.63021 c -8.2584,2.0949 -13.921,7.4731 -16.746,15.906 -0.8446,2.5208 -1.7395,7.5025 -1.7395,9.6836 v 1.5612 h 24.545 l 0.46156,-0.7276 c 1.8232,-2.8741 4.9574,-4.1362 7.8014,-3.1414 l 1.1906,0.41647 16.169,-8.4602 c 14.122,-7.3892 16.316,-8.4597 17.33,-8.4563 1.4725,0.0049 2.3104,0.43057 3.0718,1.5604 0.90718,1.3462 0.83696,3.1782 -0.1656,4.32 -0.55897,0.63664 -5.1701,3.1809 -16.892,9.3206 l -16.123,8.4449 -0.30663,1.1465 c -0.17948,0.67106 -0.74768,1.6249 -1.3702,2.3003 -3.1575,3.4255 -8.1116,2.8546 -10.705,-1.2336 l -0.46156,-0.7276 h -24.614 l 0.18657,1.9182 c 0.70991,7.2991 3.3336,13.395 7.6068,17.673 2.9236,2.9268 6.3352,4.8329 10.664,5.958 l 2.3812,0.61896 67.798,0.026 2.5997,-0.65948 z m -58.244,-25.554 c 2.2639,-1.9878 0.88846,-5.536 -2.146,-5.536 -1.0041,0 -1.3391,0.1423 -2.0808,0.88399 -0.48619,0.48619 -0.96344,1.2006 -1.0606,1.5875 -0.2641,1.0522 0.0746,2.0086 1.0606,2.9945 0.74408,0.74408 1.0752,0.88399 2.0919,0.88399 0.97146,0 1.3893,-0.15931 2.1349,-0.81396 z m 47.918,-0.07003 c 0.48619,-0.48619 0.96344,-1.2006 1.0606,-1.5875 0.2641,-1.0522 -0.0746,-2.0086 -1.0606,-2.9945 -0.74685,-0.74685 -1.0734,-0.88399 -2.105,-0.88399 -1.0213,0 -1.3826,0.14811 -2.2093,0.90571 -0.89634,0.82144 -0.9883,1.0326 -0.9883,2.2693 0,1.2367 0.09196,1.4479 0.9883,2.2693 0.82669,0.7576 1.188,0.90571 2.2093,0.90571 1.0316,0 1.3581,-0.13714 2.105,-0.88399 z"
       fill="#ffffff"
       stroke-width="0.26458"
       id="path2136" />
  </g>
</svg>
